<svg width="500" height="79" xmlns="http://www.w3.org/2000/svg" xml:space="preserve" enable-background="new -238.817 28.979 500 111.316" version="1.1">

 <g>
  <title>Layer 1</title>
  <g stroke="null" id="svg_1">
   <path stroke="null" id="svg_2" d="m330.70182,59.17987c-3.63288,3.04672 -8.13124,4.62642 -13.19375,4.62642l-37.48472,0c-5.16625,0 -9.51148,-1.57875 -13.091,-4.62642c-3.60521,-3.06104 -5.48538,-7.03419 -5.48538,-11.88219l0,-2.96267c0,-4.59013 1.87918,-8.51266 5.68989,-11.64533c3.80973,-3.28167 8.05319,-4.87474 12.88648,-4.87474l23.83056,0l0,10.94525l-23.83056,0c-1.66182,0 -3.06774,0.53198 -4.44798,1.59212c-1.48398,1.15852 -2.09752,2.42973 -2.09752,3.98365l0,2.96267c0,3.68853 2.1489,5.45353 6.5455,5.45353l37.48373,0c4.47465,0 6.64825,-1.76499 6.64825,-5.45353l0,-28.17018c0,-1.49184 -0.61454,-2.7621 -2.09654,-3.89769c-1.40691,-1.16043 -2.9146,-1.69145 -4.55073,-1.69145l-54.96145,0l0,-10.94334l54.96145,0c4.90838,0 9.15382,1.59212 12.83511,4.79929c3.83443,3.28167 5.67705,7.2061 5.67705,11.6969l0,28.17973c0,4.87379 -1.73987,8.87177 -5.3184,11.90798z" fill="#FFFFFF"/>
   <path stroke="null" id="svg_3" d="m406.02596,47.29768c-2.91361,11.04267 -9.05107,16.50861 -18.51117,16.50861l-16.10934,0c-9.51049,0 -15.59657,-5.4669 -18.51117,-16.50861l-11.91528,-44.70172l12.73433,0l11.45388,42.57952c1.33084,5.05908 4.03993,7.57572 8.02948,7.57572l12.57823,0c4.01424,0 6.87846,-2.51664 8.15693,-7.57572l11.37978,-42.57952l12.70568,0l-11.99136,44.70172z" fill="#FFFFFF"/>
   <path stroke="null" id="svg_4" d="m491.32395,33.74887c-3.8364,3.27116 -8.05418,4.81362 -12.8361,4.81362l-23.98271,0l0,-11.05509l23.98271,0c1.482,0 2.9146,-0.51861 4.34819,-1.55583c1.42964,-1.1461 2.14594,-2.40681 2.14594,-3.87382l0,-2.9493c0,-3.68853 -2.14594,-5.61207 -6.49412,-5.61207l-37.63786,0c-4.34621,0 -6.5455,1.92354 -6.5455,5.61207l0,28.04506c0,1.56825 0.61355,2.82609 2.09752,3.88623c1.40592,1.13559 2.81185,1.66567 4.44798,1.66567l55.07705,0l0,10.94334l-55.07705,0c-4.80662,0 -9.05107,-1.59021 -12.86178,-4.72289c-3.80874,-3.2597 -5.64938,-7.17076 -5.64938,-11.79623l0,-28.05652c0,-4.94733 1.83966,-8.85935 5.41918,-11.89365c3.60521,-3.03621 7.9781,-4.62833 13.091,-4.62833l37.63786,0c5.11389,0 9.46109,1.59212 13.04061,4.529c3.58051,3.05913 5.47056,7.02082 5.47056,11.99298l0,2.9598c0.00198,4.52805 -1.88807,8.38945 -5.67408,11.69595z" fill="#FFFFFF"/>
   <ellipse stroke="null" id="svg_5" ry="7.30448" rx="7.56907" cy="33.12138" cx="100.40396" fill="#FFFFFF"/>
   <ellipse stroke="null" id="svg_6" ry="7.30257" rx="7.56907" cy="9.80207" cx="100.40396" fill="#FFFFFF"/>
   <path stroke="null" id="svg_7" d="m125.5367,49.1238c4.18023,0 7.56907,3.25588 7.56907,7.30448c0,4.0209 -3.38785,7.29111 -7.56907,7.29111c-4.18023,0 -7.56709,-3.2702 -7.56709,-7.29111c0,-4.0486 3.38785,-7.30448 7.56709,-7.30448z" fill="#FFFFFF"/>
   <ellipse stroke="null" id="svg_8" ry="7.30448" rx="7.56907" cy="33.12138" cx="125.5367" fill="#5D87A1"/>
   <g stroke="null" id="svg_9">
    <path stroke="null" id="svg_10" d="m196.7468,47.19835l-0.25589,1.03627c-3.04304,10.22799 -9.01352,15.31094 -18.11498,15.31094l-8.33576,0c-9.44726,0 -15.4948,-5.45353 -18.42225,-16.42075l-11.8392,-44.52885l12.6958,0l11.39065,42.43244c1.27847,5.0457 4.0014,7.54993 7.91289,7.54993l4.8333,0c4.01424,0 6.86462,-2.52906 8.16878,-7.5251c0,0 2.96598,-8.79823 11.99234,-8.92143c0,0 8.88508,-0.81469 11.91528,8.56232l0.10275,0.33428" fill="#FFFFFF"/>
    <path stroke="null" id="svg_11" d="m208.79052,45.0284c1.18758,4.87283 4.26915,7.54993 8.16878,7.54993l4.81946,0c4.03993,0 6.86462,-2.52906 8.14408,-7.54993l11.2879,-42.43244l12.6958,0l-11.94097,44.52885c-2.92843,10.96722 -9.00068,16.42075 -18.46078,16.42075l-8.29722,0c-9.44726,0 -15.57187,-5.49077 -18.51216,-16.49524l12.0951,-2.02191z" fill="#FFFFFF"/>
   </g>
   <path stroke="null" id="svg_12" d="m74.45117,59.27729c-3.57952,3.06104 -8.01564,4.67609 -13.06531,4.67609l-58.38685,0l0,-61.40803l58.38685,0c4.76809,0 8.93547,1.5692 12.73236,4.82508c3.75934,3.2597 5.59998,7.20801 5.59998,11.6969l0,28.25327c0.02569,4.8757 -1.70035,8.89756 -5.26703,11.95669zm-6.57119,-40.18417c0,-1.4565 -0.65208,-2.75159 -2.07184,-3.88719c-1.38024,-1.13464 -2.799,-1.66567 -4.42229,-1.66567l-46.60001,0l0,39.34656l46.62471,0c4.32052,0 6.49412,-1.82612 6.49412,-5.51465l0,-28.27906l-0.0247,0z" fill="#FFFFFF"/>
   <g stroke="null" id="svg_13">
    <path stroke="null" id="svg_14" d="m3.6007,80.24041l18.51216,0l0,2.73822l-7.72221,0l0,18.5821l-3.19519,0l0,-18.5821l-7.59476,0l0,-2.73822z" fill="#FFFFFF"/>
    <path stroke="null" id="svg_15" d="m24.60558,80.24041l2.85038,0l0,9.08093c1.20141,-1.43071 2.72293,-2.14703 4.50034,-2.14703c0.9712,0 1.84064,0.27029 2.62116,0.71631c0.75483,0.49187 1.3417,1.13368 1.69936,1.92354c0.42286,0.86531 0.60169,2.12411 0.60169,3.75157l0,7.99596l-2.87706,0l0,-8.68648c0,-1.03627 -0.25589,-1.87483 -0.75483,-2.51664c-0.54933,-0.64182 -1.23895,-0.93694 -2.09654,-0.93694c-0.62639,0 -1.23994,0.14708 -1.81594,0.49187c-0.57502,0.32091 -1.17572,0.83856 -1.87918,1.55679l0,10.09141l-2.85038,0l0,-21.32128l0.00099,0z" fill="#FFFFFF"/>
    <path stroke="null" id="svg_16" d="m53.1657,94.77487l-10.24062,0c0.07706,1.40684 0.52463,2.44406 1.41976,3.23296c0.86944,0.81373 1.96908,1.23301 3.32363,1.23301c1.94241,0 3.66844,-0.59311 5.29272,-1.75067l0,2.73727c-0.89612,0.54344 -1.75271,0.93885 -2.64685,1.23492c-0.86944,0.2722 -1.89103,0.36962 -3.09343,0.36962c-1.59858,0 -2.87706,-0.36962 -3.89964,-0.98565c-0.9959,-0.61794 -1.77642,-1.50521 -2.37812,-2.59114c-0.6007,-1.08593 -0.89513,-2.36861 -0.89513,-3.77544c0,-2.14894 0.60169,-3.89865 1.89301,-5.25678c1.25278,-1.38105 2.90274,-2.02287 4.89653,-2.02287c1.93055,0 3.47776,0.64182 4.62779,1.99803c1.12533,1.30846 1.70134,3.06104 1.70134,5.25678l0,0.31995l-0.00099,0zm-10.16454,-1.70291l7.33886,0c-0.07805,-1.08593 -0.39718,-1.92449 -1.02258,-2.56631c-0.62639,-0.59311 -1.44446,-0.9121 -2.48087,-0.9121c-1.04827,0 -1.89301,0.319 -2.5441,0.9121c-0.65208,0.64182 -1.07297,1.48038 -1.29132,2.56631z" fill="#FFFFFF"/>
    <path stroke="null" id="svg_17" d="m88.01542,102.94274l-3.17049,3.01042c-0.9712,-0.02483 -2.00762,-0.24737 -3.08157,-0.54249c-1.09964,-0.2722 -2.17261,-0.69148 -3.27324,-1.21009c-1.12434,-0.51766 -2.62018,-1.38105 -4.4875,-2.63985c-2.69724,-0.44411 -4.89653,-1.6542 -6.62256,-3.67803c-1.75074,-1.99803 -2.62018,-4.29405 -2.62018,-6.88328c0,-3.20908 1.12533,-5.82505 3.36216,-7.94629c2.24968,-2.07349 5.07536,-3.1088 8.52743,-3.1088c3.39971,0 6.26293,1.03531 8.54027,3.08396c2.24968,2.12411 3.37501,4.71429 3.37501,7.87275c0,2.64081 -0.84375,4.95879 -2.56979,6.95683c-1.72604,2.0009 -3.92434,3.25874 -6.62256,3.75157l0.81806,0.32091c2.60832,0.96272 4.47465,1.45459 5.62468,1.45459c0.65406,0 1.36937,-0.17096 2.20028,-0.4422zm-11.36496,-20.13697c-2.48087,0 -4.55073,0.74019 -6.175,2.34568c-1.62427,1.55392 -2.44135,3.52712 -2.44135,5.84797c0,2.31894 0.81806,4.19377 2.46802,5.74769c1.62328,1.50712 3.69512,2.27214 6.14931,2.27214c2.41566,0 4.44896,-0.76502 6.12362,-2.34377c1.67466,-1.57971 2.49272,-3.50516 2.49272,-5.77443c0,-2.34568 -0.77953,-4.24534 -2.4285,-5.80022c-1.6628,-1.55392 -3.69611,-2.29506 -6.18883,-2.29506z" fill="#FFFFFF"/>
    <path stroke="null" id="svg_18" d="m101.5283,101.56073l0,-1.72775c-0.6254,0.5912 -1.31602,1.11076 -2.12124,1.48038c-0.79238,0.34383 -1.59858,0.51766 -2.37812,0.51766c-0.92082,0 -1.79026,-0.22158 -2.5441,-0.64182c-0.81806,-0.44411 -1.41976,-1.06014 -1.77741,-1.80129c-0.42286,-0.76502 -0.576,-2.07158 -0.576,-3.82415l0,-8.0695l2.85137,0l0,8.0695c0,1.5033 0.2302,2.49086 0.67777,3.08301c0.44756,0.59311 1.2271,0.89109 2.30204,0.89109c1.41877,0 2.5688,-0.66665 3.54,-1.97511l0,-10.06753l2.87706,0l0,14.11422l-2.85236,0l0,-0.04871l0.00099,0z" fill="#FFFFFF"/>
    <path stroke="null" id="svg_19" d="m117.84117,93.07195l0,5.99792c0,0.46799 0.15314,0.73828 0.49795,0.73828c0.38334,0 0.93366,-0.27029 1.64996,-0.76407l0,1.701c-0.66492,0.3954 -1.18955,0.66665 -1.59858,0.81564c-0.42089,0.14708 -0.79139,0.22158 -1.21425,0.22158c-1.2271,0 -1.95525,-0.51766 -2.1736,-1.40684c-1.2271,0.88918 -2.55793,1.40684 -3.92532,1.40684c-1.04827,0 -1.85349,-0.37057 -2.55694,-0.9866c-0.66394,-0.64182 -1.02258,-1.45555 -1.02258,-2.49277c0,-0.88918 0.33197,-1.60263 1.02258,-2.36861c0.62639,-0.69053 1.5976,-1.23492 2.79999,-1.62746l3.68228,-1.23492l0,-0.71631c0,-1.75162 -0.88228,-2.59019 -2.60832,-2.59019c-1.5729,0 -3.1201,0.74019 -4.61495,2.32085l0,-2.98559c1.12533,-1.30942 2.74862,-1.95124 4.84515,-1.95124c1.59858,0 2.82568,0.44411 3.79688,1.21009c0.3458,0.2722 0.60169,0.61698 0.89414,1.01239c0.2302,0.44316 0.38433,0.86244 0.47325,1.28363c0.07805,0.44125 0.05236,1.28172 0.05236,2.41636zm-2.83754,5.72572l0,-4.19568l-1.93154,0.69053c-0.9959,0.39445 -1.67367,0.78985 -2.09654,1.1843c-0.42089,0.37153 -0.6007,0.84047 -0.6007,1.40684c0,0.61698 0.17982,1.08497 0.576,1.4565c0.3705,0.39445 0.86944,0.54153 1.49484,0.54153c0.9465,0 1.77741,-0.34383 2.55793,-1.08402z" fill="#FFFFFF"/>
    <path stroke="null" id="svg_20" d="m125.32033,87.49522l0,1.72775c1.317,-1.33234 2.77332,-2.04865 4.41043,-2.04865c0.88228,0 1.75074,0.27029 2.53126,0.71631c0.76669,0.46799 1.36838,1.08497 1.77741,1.87483c0.42089,0.76598 0.63924,2.02478 0.63924,3.75157l0,8.04467l-2.88891,0l0,-8.04467c0,-1.43071 -0.2302,-2.51664 -0.67777,-3.10975c-0.44756,-0.59311 -1.20141,-0.93694 -2.27536,-0.93694c-1.36838,0 -2.5194,0.66474 -3.4906,1.9732l0,10.11815l-2.95313,0l0,-14.06647l2.92744,0z" fill="#FFFFFF"/>
    <path stroke="null" id="svg_21" d="m136.55784,89.76545l5.44586,-5.18133l0,2.91109l4.60309,0l0,2.5176l-4.5774,0l0,6.90812c0,1.57875 0.65208,2.41923 2.07184,2.41923c1.04827,0 2.12124,-0.32091 3.27226,-0.98851l0,2.61597c-1.09964,0.59311 -2.30204,0.8634 -3.61806,0.8634c-1.30416,0 -2.4038,-0.36962 -3.27226,-1.08593c-0.28158,-0.22158 -0.52463,-0.51861 -0.70346,-0.76407c-0.15314,-0.24737 -0.31912,-0.64182 -0.44756,-1.08593c-0.12745,-0.49378 -0.17883,-1.30846 -0.17883,-2.61788l0,-6.21568l-2.59548,0l0,-0.29608z" fill="#FFFFFF"/>
    <path stroke="null" id="svg_22" d="m158.84021,101.56073l0,-1.72775c-0.57502,0.5912 -1.31602,1.11076 -2.09555,1.48038c-0.78052,0.34383 -1.5976,0.51766 -2.35243,0.51766c-0.9712,0 -1.81496,-0.22158 -2.56979,-0.64182c-0.77953,-0.44411 -1.35455,-1.06014 -1.77741,-1.80129c-0.39619,-0.71631 -0.57502,-2.02287 -0.57502,-3.77544l0,-8.11821l2.87607,0l0,8.0695c0,1.5033 0.17982,2.49086 0.65208,3.08301c0.44756,0.59311 1.20141,0.89109 2.32674,0.89109c1.36838,0 2.57078,-0.66665 3.5153,-1.97511l0,-10.06753l2.87706,0l0,14.11422l-2.87706,0l0,-0.04871z" fill="#FFFFFF"/>
    <path stroke="null" id="svg_23" d="m177.63394,91.36904l0,10.19169l-2.90274,0l0,-7.87084c0,-1.55583 -0.22922,-2.64176 -0.65208,-3.28358c-0.44756,-0.59311 -1.17572,-0.93694 -2.27536,-0.93694c-0.576,0 -1.12533,0.14708 -1.62427,0.44316c-0.49894,0.29799 -1.07297,0.74114 -1.70035,1.4565l0,10.19169l-2.8899,0l0,-14.06647l2.8899,0l0,1.87578c1.4573,-1.48038 2.90176,-2.19669 4.28199,-2.19669c1.86633,0 3.29893,0.88727 4.32052,2.63985c1.52251,-1.72775 3.14579,-2.63985 4.82045,-2.63985c1.41877,0 2.56979,0.51957 3.48962,1.55392c0.90797,0.98851 1.35554,2.5176 1.35554,4.5653l0,8.31591l-2.87607,0l0,-8.3885c0,-1.18621 -0.26874,-2.02382 -0.741,-2.66564c-0.49894,-0.59311 -1.2024,-0.93789 -2.14791,-0.93789c-1.20042,-0.02292 -2.30006,0.59311 -3.34833,1.75258z" fill="#FFFFFF"/>
    <path stroke="null" id="svg_24" d="m219.2979,96.62486l0,3.38195c-2.33958,1.25784 -5.03682,1.79938 -8.09271,1.79938c-2.46704,0 -4.56357,-0.49282 -6.28961,-1.42976c-1.72604,-0.93885 -3.08058,-2.27023 -4.10415,-3.92444c-0.99689,-1.70196 -1.49583,-3.52808 -1.49583,-5.50223c0,-3.1088 1.12533,-5.77443 3.42638,-7.87084c2.31488,-2.12411 5.13958,-3.15942 8.54126,-3.15942c2.30006,0 4.92123,0.56636 7.74592,1.75258l0,3.3065c-2.5935,-1.43167 -5.12574,-2.17186 -7.61946,-2.17186c-2.53126,0 -4.6021,0.74019 -6.32814,2.34568c-1.64897,1.55392 -2.49272,3.52712 -2.49272,5.79736c0,2.36861 0.84375,4.29405 2.46802,5.79736c1.64798,1.50712 3.75835,2.24731 6.32715,2.24731c2.69823,0.02483 5.34409,-0.74019 7.91388,-2.36956z" fill="#FFFFFF"/>
    <path stroke="null" id="svg_25" d="m229.55137,87.46943c2.1736,0 4.03894,0.69244 5.51008,2.07349c1.45829,1.40684 2.20028,3.1088 2.20028,5.23195c0,1.99803 -0.74199,3.72482 -2.20028,5.05908c-1.52152,1.3333 -3.36118,1.97225 -5.61283,1.97225c-2.17261,0 -4.0014,-0.63991 -5.47154,-2.02287c-1.43161,-1.33234 -2.1736,-3.03621 -2.1736,-5.10779c0,-2.04865 0.741,-3.77449 2.19929,-5.13262c1.44446,-1.38105 3.29794,-2.07349 5.54861,-2.07349zm-0.15314,2.49277c-1.38024,0 -2.50656,0.44507 -3.4007,1.35908c-0.89513,0.81373 -1.32985,1.99803 -1.32985,3.3065c0,1.35622 0.46041,2.49086 1.35554,3.3065c0.89513,0.83856 2.07184,1.30655 3.47776,1.30655c1.39407,0 2.56979,-0.46799 3.46492,-1.33234c0.88228,-0.84047 1.35455,-1.92545 1.35455,-3.28167c0,-1.35813 -0.47325,-2.49277 -1.43161,-3.3065c-0.89612,-0.91306 -2.07184,-1.35813 -3.4906,-1.35813z" fill="#FFFFFF"/>
    <path stroke="null" id="svg_26" d="m252.38405,91.36904l0,10.19169l-2.90176,0l0,-7.87084c0,-1.55583 -0.23119,-2.64176 -0.65208,-3.28358c-0.42188,-0.59311 -1.17572,-0.93694 -2.24968,-0.93694c-0.60169,0 -1.15102,0.14708 -1.62427,0.44316c-0.49795,0.29799 -1.09964,0.74114 -1.72505,1.4565l0,10.19169l-2.8899,0l0,-14.06647l2.8899,0l0,1.87578c1.482,-1.48038 2.90274,-2.19669 4.32151,-2.19669c1.8278,0 3.27226,0.88727 4.30768,2.63985c1.52251,-1.72775 3.14579,-2.63985 4.79476,-2.63985c1.41976,0 2.59548,0.51957 3.51629,1.55392c0.88228,0.98851 1.32985,2.5176 1.32985,4.5653l0,8.31591l-2.85137,0l0,-8.3885c0,-1.18621 -0.26874,-2.02382 -0.76669,-2.66564c-0.4861,-0.59311 -1.2024,-0.93789 -2.14791,-0.93789c-1.20338,-0.02292 -2.30303,0.59311 -3.3513,1.75258z" fill="#FFFFFF"/>
    <path stroke="null" id="svg_27" d="m265.44837,108.81554l0,-21.32032l5.0635,0c2.58263,0 4.5774,0.64182 6.03372,1.87578c1.43161,1.25784 2.1489,3.01042 2.1489,5.23195c0,2.12219 -0.66591,3.84899 -1.99576,5.23195c-1.35455,1.3333 -3.11912,1.97225 -5.21565,1.97225c-0.94552,0 -1.91771,-0.19675 -3.06774,-0.54058l0,7.54993l-2.96696,0l0,-0.00096zm4.96174,-18.68143l-2.01947,0l0,8.63777c0.89414,0.46799 1.76358,0.66474 2.78517,0.66474c1.33084,0 2.45419,-0.46895 3.27324,-1.38105c0.86944,-0.88727 1.27847,-2.07253 1.27847,-3.47937c0,-0.9121 -0.15215,-1.70196 -0.56217,-2.49086c-0.40903,-0.69339 -0.9465,-1.1843 -1.63613,-1.50521c-0.68962,-0.29703 -1.73888,-0.44602 -3.11912,-0.44602z" fill="#FFFFFF"/>
    <path stroke="null" id="svg_28" d="m291.12057,101.56073l0,-1.72775c-0.58885,0.5912 -1.37925,1.11076 -2.14791,1.48038c-0.741,0.34383 -1.53338,0.51766 -2.35243,0.51766c-0.91983,0 -1.76457,-0.22158 -2.55596,-0.64182c-0.76768,-0.44411 -1.40691,-1.06014 -1.79026,-1.80129c-0.40903,-0.71631 -0.56217,-2.02287 -0.56217,-3.77544l0,-8.11821l2.86322,0l0,8.0695c0,1.5033 0.20452,2.49086 0.66492,3.08301c0.41002,0.59311 1.2271,0.89109 2.35243,0.89109c1.38024,0 2.55694,-0.66665 3.52815,-1.97511l0,-10.06753l2.86322,0l0,14.11422l-2.86322,0l0,-0.04871z" fill="#FFFFFF"/>
    <path stroke="null" id="svg_29" d="m296.05464,89.76545l5.42116,-5.18133l0,2.91109l4.67917,0l0,2.5176l-4.67917,0l0,6.90812c0,1.57875 0.69061,2.41923 2.09654,2.41923c0.99689,0 2.09654,-0.32091 3.24756,-0.98851l0,2.61597c-1.07396,0.59311 -2.30105,0.8634 -3.57952,0.8634c-1.38122,0 -2.45419,-0.36962 -3.27226,-1.08593c-0.30727,-0.22158 -0.56316,-0.51861 -0.71729,-0.76407c-0.20353,-0.24737 -0.35766,-0.64182 -0.45942,-1.08593c-0.15413,-0.49378 -0.2055,-1.30846 -0.2055,-2.61788l0,-6.21568l-2.55694,0l0,-0.29799l0.02569,0l0,0.00191z" fill="#FFFFFF"/>
    <path stroke="null" id="svg_30" d="m310.60393,81.57275c0.46041,0 0.81806,0.17096 1.17473,0.49187c0.35766,0.34574 0.51277,0.71822 0.51277,1.18621c0,0.39349 -0.15413,0.81564 -0.51277,1.13464c-0.35667,0.34574 -0.71531,0.51766 -1.17473,0.51766c-0.4614,0 -0.84375,-0.17191 -1.2271,-0.51766c-0.35667,-0.319 -0.4861,-0.74019 -0.4861,-1.13464c0,-0.44507 0.12943,-0.84047 0.4861,-1.18621c0.38334,-0.29512 0.79238,-0.49187 1.2271,-0.49187zm-1.43161,5.92247l2.88891,0l0,14.11422l-2.88891,0l0,-14.11422z" fill="#FFFFFF"/>
    <path stroke="null" id="svg_31" d="m319.04145,87.49522l0,1.72775c1.27847,-1.33234 2.7091,-2.04865 4.39759,-2.04865c0.92082,0 1.78927,0.27029 2.50557,0.71631c0.81806,0.46799 1.43161,1.08497 1.78927,1.87483c0.41002,0.76598 0.61454,2.02478 0.61454,3.75157l0,8.04467l-2.86322,0l0,-8.04467c0,-1.43071 -0.22922,-2.51664 -0.66492,-3.10975c-0.46041,-0.59311 -1.27946,-0.93694 -2.30006,-0.93694c-1.33182,0 -2.55793,0.66474 -3.47875,1.9732l0,10.11815l-2.9146,0l0,-14.06647l2.9146,0z" fill="#FFFFFF"/>
    <path stroke="null" id="svg_32" d="m331.46851,92.38143c0,-1.48038 0.56217,-2.66468 1.68849,-3.55386c1.12434,-0.88918 2.70811,-1.35813 4.65348,-1.35813l6.03273,0l0,2.19669l-2.96598,0c0.56217,0.56732 0.94749,1.08497 1.2271,1.55392c0.20452,0.4699 0.30727,1.01334 0.30727,1.55583c0,0.76598 -0.20452,1.48038 -0.63924,2.17186c-0.43274,0.71345 -1.02159,1.28172 -1.66083,1.65134c-0.66591,0.37153 -1.81594,0.66665 -3.376,0.89014c-1.12434,0.17191 -1.63613,0.51766 -1.63613,1.10885c0,0.29799 0.20452,0.59311 0.61355,0.78985c0.38433,0.1977 1.12533,0.41928 2.24968,0.61794c1.76457,0.41833 2.9146,0.66474 3.42638,0.88727c0.4861,0.22253 0.97022,0.51861 1.40691,0.9121c0.68962,0.64182 1.02258,1.50712 1.02258,2.56726c0,1.3333 -0.58885,2.41923 -1.81594,3.20908c-1.27847,0.7889 -2.9146,1.18239 -4.93506,1.18239c-2.09555,0 -3.75835,-0.39349 -4.98545,-1.18239c-1.25377,-0.84047 -1.78927,-1.87674 -1.78927,-3.25779c0,-1.87674 1.17473,-3.13458 3.60324,-3.67612c-0.99689,-0.59311 -1.45631,-1.212 -1.45631,-1.75258c0,-0.49378 0.22823,-0.88918 0.58687,-1.23492c0.4861,-0.39445 0.99788,-0.64182 1.71319,-0.83856c-2.19731,-0.86435 -3.27127,-2.36765 -3.27127,-4.44018zm4.70387,9.89275c-0.9465,0 -1.73888,0.22349 -2.35243,0.59311c-0.63825,0.42024 -0.9465,0.93885 -0.9465,1.55583c0,1.43167 1.35554,2.1709 4.06562,2.1709c1.25278,0 2.27536,-0.19866 2.96499,-0.56827c0.66492,-0.32091 1.07494,-0.83856 1.07494,-1.50521c0,-0.69053 -0.4861,-1.20818 -1.40592,-1.60454c-0.79238,-0.41737 -1.91771,-0.64182 -3.4007,-0.64182zm0.66492,-12.31198c-0.69061,0 -1.43161,0.24832 -1.9434,0.71727c-0.56118,0.54058 -0.81806,1.15947 -0.81806,1.85c0,0.69244 0.25688,1.30846 0.81806,1.8032c0.56217,0.46895 1.17572,0.71345 2.04516,0.71345c0.81806,0 1.48398,-0.29608 1.99477,-0.73828c0.56217,-0.51957 0.86944,-1.08593 0.86944,-1.82612c0,-0.69053 -0.30727,-1.3333 -0.86944,-1.82612c-0.50981,-0.44602 -1.2271,-0.69339 -2.09654,-0.69339z" fill="#FFFFFF"/>
    <path stroke="null" id="svg_33" d="m374.60163,96.62486l0,3.38195c-2.35144,1.25784 -4.98545,1.79938 -8.0522,1.79938c-2.50656,0 -4.6021,-0.49282 -6.2906,-1.42976c-1.6875,-0.93885 -3.11912,-2.27023 -4.09131,-3.92444c-0.9712,-1.70196 -1.50769,-3.52808 -1.50769,-5.50223c0,-3.1088 1.15003,-5.77443 3.42638,-7.87084c2.32575,-2.12411 5.13859,-3.15942 8.54027,-3.15942c2.27635,0 4.88368,0.56636 7.72122,1.75258l0,3.3065c-2.58164,-1.43167 -5.13958,-2.17186 -7.56808,-2.17186c-2.58164,0 -4.65348,0.74019 -6.31628,2.34568c-1.6875,1.55392 -2.50557,3.52712 -2.50557,5.79736c0,2.36861 0.76669,4.29405 2.45419,5.79736c1.63613,1.50712 3.78503,2.24731 6.31628,2.24731c2.73577,0.02483 5.31742,-0.74019 7.87337,-2.36956z" fill="#FFFFFF"/>
    <path stroke="null" id="svg_34" d="m384.85608,87.46943c2.24968,0 4.03993,0.69244 5.52292,2.07349c1.4573,1.40684 2.19929,3.1088 2.19929,5.23195c0,1.99803 -0.74199,3.72482 -2.24968,5.05908c-1.50769,1.3333 -3.32462,1.97225 -5.5743,1.97225c-2.19929,0 -4.01424,-0.63991 -5.47253,-2.02287c-1.45631,-1.33234 -2.1983,-3.03621 -2.1983,-5.10779c0,-2.04865 0.74199,-3.77449 2.24968,-5.13262c1.43161,-1.38105 3.27226,-2.07349 5.52292,-2.07349zm-0.10275,2.49277c-1.38122,0 -2.53126,0.44507 -3.42638,1.35908c-0.87043,0.81373 -1.27847,1.99803 -1.27847,3.3065c0,1.35622 0.40804,2.49086 1.32985,3.3065c0.91983,0.83856 2.04516,1.30655 3.52716,1.30655c1.38122,0 2.50557,-0.46799 3.42737,-1.33234c0.86944,-0.84047 1.32985,-1.92545 1.32985,-3.28167c0,-1.35813 -0.46041,-2.49277 -1.38024,-3.3065c-0.97219,-0.91306 -2.12321,-1.35813 -3.52914,-1.35813z" fill="#FFFFFF"/>
    <path stroke="null" id="svg_35" d="m407.71346,91.36904l0,10.19169l-2.9146,0l0,-7.87084c0,-1.55583 -0.2055,-2.64176 -0.61355,-3.28358c-0.43373,-0.59311 -1.20141,-0.93694 -2.27536,-0.93694c-0.58885,0 -1.12632,0.14708 -1.6628,0.44316c-0.46041,0.29799 -1.04926,0.74114 -1.6875,1.4565l0,10.19169l-2.86322,0l0,-14.06647l2.86322,0l0,1.87578c1.48299,-1.48038 2.94029,-2.19669 4.34621,-2.19669c1.81594,0 3.27226,0.88727 4.24445,2.63985c1.58574,-1.72775 3.17049,-2.63985 4.858,-2.63985c1.40691,0 2.60832,0.51957 3.47776,1.55392c0.92082,0.98851 1.35554,2.5176 1.35554,4.5653l0,8.31591l-2.78616,0l0,-8.3885c0,-1.18621 -0.28158,-2.02382 -0.76768,-2.66564c-0.51277,-0.59311 -1.27847,-0.93789 -2.14791,-0.93789c-1.27946,-0.02292 -2.35144,0.59311 -3.42638,1.75258z" fill="#FFFFFF"/>
    <path stroke="null" id="svg_36" d="m420.75408,108.81554l0,-21.32032l5.03781,0c2.58164,0 4.62779,0.64182 6.06039,1.87578c1.43062,1.25784 2.09654,3.01042 2.09654,5.23195c0,2.12219 -0.61454,3.84899 -1.96908,5.23195c-1.35455,1.3333 -3.06774,1.97225 -5.16625,1.97225c-0.94552,0 -1.91672,-0.19675 -3.11813,-0.54058l0,7.54993l-2.94128,0l0,-0.00096zm5.03682,-18.68143l-2.07184,0l0,8.63777c0.92082,0.46799 1.79026,0.66474 2.81284,0.66474c1.32985,0 2.42949,-0.46895 3.27226,-1.38105c0.81905,-0.88727 1.30416,-2.07253 1.30416,-3.47937c0,-0.9121 -0.2055,-1.70196 -0.58786,-2.49086c-0.40903,-0.69339 -0.9218,-1.1843 -1.6628,-1.50521c-0.68765,-0.29703 -1.71122,-0.44602 -3.06675,-0.44602z" fill="#FFFFFF"/>
    <path stroke="null" id="svg_37" d="m446.50136,93.07195l0,5.99792c0,0.46799 0.17883,0.73828 0.53747,0.73828c0.33197,0 0.86845,-0.27029 1.61044,-0.76407l0,1.701c-0.63924,0.3954 -1.17572,0.66665 -1.56005,0.81564c-0.40903,0.14708 -0.84375,0.22158 -1.2271,0.22158c-1.27748,0 -1.99477,-0.51766 -2.19929,-1.40684c-1.2271,0.88918 -2.58164,1.40684 -3.91149,1.40684c-0.99689,0 -1.86633,-0.37057 -2.58263,-0.9866c-0.68962,-0.64182 -1.02258,-1.45555 -1.02258,-2.49277c0,-0.88918 0.35766,-1.60263 0.9712,-2.36861c0.66591,-0.69053 1.63712,-1.23492 2.83852,-1.62746l3.70698,-1.23492l0,-0.71631c0,-1.75162 -0.86746,-2.59019 -2.65772,-2.59019c-1.58475,0 -3.06873,0.74019 -4.6021,2.32085l0,-2.98559c1.17572,-1.30942 2.71008,-1.95124 4.858,-1.95124c1.61143,0 2.83852,0.44411 3.80874,1.21009c0.30727,0.2722 0.58885,0.61698 0.84375,1.01239c0.25589,0.44316 0.41002,0.86244 0.4861,1.28363c0.07706,0.44125 0.10176,1.28172 0.10176,2.41636zm-2.83852,5.72572l0,-4.19568l-1.94241,0.69053c-0.9465,0.39445 -1.63613,0.78985 -2.09752,1.1843c-0.40903,0.37153 -0.56118,0.84047 -0.56118,1.40684c0,0.61698 0.20452,1.08497 0.56118,1.4565c0.35766,0.39445 0.92082,0.54153 1.48398,0.54153c0.91983,0 1.76457,-0.34383 2.55596,-1.08402z" fill="#FFFFFF"/>
    <path stroke="null" id="svg_38" d="m454.04474,87.49522l0,1.72775c1.30416,-1.33234 2.7091,-2.04865 4.3719,-2.04865c0.92082,0 1.76358,0.27029 2.58263,0.71631c0.69061,0.46799 1.32985,1.08497 1.76457,1.87483c0.43373,0.76598 0.58786,2.02478 0.58786,3.75157l0,8.04467l-2.88891,0l0,-8.04467c0,-1.43071 -0.28257,-2.51664 -0.69061,-3.10975c-0.43472,-0.59311 -1.20141,-0.93694 -2.30006,-0.93694c-1.33182,0 -2.48186,0.66474 -3.42737,1.9732l0,10.11815l-2.96598,0l0,-14.06647l2.96598,0z" fill="#FFFFFF"/>
    <path stroke="null" id="svg_39" d="m475.65032,87.49522l3.27226,0l-10.35325,21.32032l-3.17148,0l4.8827,-10.16782l-5.57331,-11.15251l3.29794,0l3.88679,7.94534l3.75835,-7.94534z" fill="#FFFFFF"/>
    <path stroke="null" id="svg_40" d="m485.23787,95.88563l-1.43062,0l0,-6.86227l-2.68637,0l0,-1.13368l6.80238,0l0,1.13368l-2.73775,0l0,6.86227l0.05236,0zm4.88368,0l-1.22512,0l0,-7.94629l2.01848,0l2.09654,6.36754l1.99477,-6.36754l1.99477,0l0,7.94629l-1.27748,0l0,-6.71328l-2.09654,6.71328l-1.27946,0l-2.25066,-6.8107l0,6.8107l0.0247,0z" fill="#FFFFFF"/>
   </g>
  </g>
 </g>
</svg>